<svg width="24" height="20" viewBox="0 0 24 20" fill="none" xmlns="http://www.w3.org/2000/svg">
<path d="M17 19V17C17 14.7909 15.2091 13 13 13H5C2.79086 13 1 14.7909 1 17V19" stroke="#F26719" stroke-width="2" stroke-linecap="round" stroke-linejoin="round"/>
<path fill-rule="evenodd" clip-rule="evenodd" d="M9 9C11.2091 9 13 7.20914 13 5C13 2.79086 11.2091 1 9 1C6.79086 1 5 2.79086 5 5C5 7.20914 6.79086 9 9 9Z" stroke="#F26719" stroke-width="2" stroke-linecap="round" stroke-linejoin="round"/>
<path d="M23 19V16.9557C22.9986 15.0925 21.765 13.4658 20 13" stroke="#F26719" stroke-width="2" stroke-linecap="round" stroke-linejoin="round"/>
<path d="M15.197 1C17 1 18.2049 3.04799 18.2049 4.875C18.2049 6.70201 16.558 8.76854 15.197 8.76854" stroke="#F26719" stroke-width="2" stroke-linecap="round" stroke-linejoin="round"/>
</svg>
