<svg width="128" height="63" viewBox="0 0 128 63" fill="none" xmlns="http://www.w3.org/2000/svg">
<path d="M9.4498 22.1396C9.4498 22.1396 8.83717 46.4625 15.7985 15.7698C18.7612 2.70705 29.8114 42.4966 20.5 47.9745C11.1886 53.4524 5.76976 46.3428 4.5 45.5C3.23024 44.6572 -1.13131 40.6803 2.25464 31.4099C5.64059 22.1396 9.4498 22.1396 9.4498 22.1396Z" fill="#F26719"/>
<path d="M54.5905 38.972C54.9025 38.972 55.1425 39.116 55.3105 39.404C55.5025 39.692 55.5985 40.088 55.5985 40.592C55.5985 41.552 55.3705 42.296 54.9145 42.824C54.0265 43.904 52.7665 44.9 51.1345 45.812C49.5265 46.724 47.7985 47.18 45.9505 47.18C43.4305 47.18 41.4745 46.496 40.0825 45.128C38.6905 43.76 37.9945 41.888 37.9945 39.512C37.9945 37.856 38.3425 36.32 39.0385 34.904C39.7345 33.464 40.6945 32.324 41.9185 31.484C43.1665 30.644 44.5705 30.224 46.1305 30.224C47.5225 30.224 48.6385 30.644 49.4785 31.484C50.3185 32.3 50.7385 33.416 50.7385 34.832C50.7385 36.488 50.1385 37.916 48.9385 39.116C47.7625 40.292 45.7585 41.228 42.9265 41.924C43.5265 43.028 44.6665 43.58 46.3465 43.58C47.4265 43.58 48.6505 43.208 50.0185 42.464C51.4105 41.696 52.6105 40.7 53.6185 39.476C53.9065 39.14 54.2305 38.972 54.5905 38.972ZM45.5185 33.752C44.6305 33.752 43.8745 34.268 43.2505 35.3C42.6505 36.332 42.3505 37.58 42.3505 39.044V39.116C43.7665 38.78 44.8825 38.276 45.6985 37.604C46.5145 36.932 46.9225 36.152 46.9225 35.264C46.9225 34.808 46.7905 34.448 46.5265 34.184C46.2865 33.896 45.9505 33.752 45.5185 33.752ZM55.2233 47.18C54.3113 47.18 53.6633 46.7 53.2793 45.74C52.9193 44.78 52.7393 43.244 52.7393 41.132C52.7393 38.012 53.1833 35.048 54.0713 32.24C54.2873 31.544 54.6353 31.04 55.1153 30.728C55.6193 30.392 56.3153 30.224 57.2033 30.224C57.6833 30.224 58.0193 30.284 58.2113 30.404C58.4033 30.524 58.4993 30.752 58.4993 31.088C58.4993 31.472 58.3193 32.336 57.9593 33.68C57.7193 34.64 57.5273 35.48 57.3833 36.2C57.2393 36.896 57.1193 37.772 57.0233 38.828C57.6713 36.956 58.4393 35.372 59.3273 34.076C60.2393 32.78 61.1633 31.82 62.0993 31.196C63.0593 30.548 63.9593 30.224 64.7993 30.224C65.6393 30.224 66.2273 30.416 66.5633 30.8C66.9233 31.184 67.1033 31.772 67.1033 32.564C67.1033 33.332 66.8753 34.724 66.4193 36.74C66.2273 37.604 66.0953 38.252 66.0233 38.684C67.2233 35.732 68.5553 33.584 70.0193 32.24C71.4833 30.896 72.8513 30.224 74.1233 30.224C75.6833 30.224 76.4633 31.004 76.4633 32.564C76.4633 33.5 76.1993 35.192 75.6713 37.64C75.2153 39.728 74.9873 41.108 74.9873 41.78C74.9873 42.74 75.3353 43.22 76.0313 43.22C76.5113 43.22 77.0753 42.932 77.7233 42.356C78.3953 41.756 79.2833 40.796 80.3873 39.476C80.6753 39.14 80.9993 38.972 81.3593 38.972C81.6713 38.972 81.9113 39.116 82.0793 39.404C82.2713 39.692 82.3673 40.088 82.3673 40.592C82.3673 41.552 82.1393 42.296 81.6833 42.824C80.6513 44.096 79.5353 45.14 78.3353 45.956C77.1593 46.772 75.8153 47.18 74.3033 47.18C73.0793 47.18 72.1553 46.832 71.5313 46.136C70.9073 45.416 70.5953 44.384 70.5953 43.04C70.5953 42.368 70.7633 41.168 71.0993 39.44C71.4113 37.928 71.5673 36.884 71.5673 36.308C71.5673 35.924 71.4353 35.732 71.1713 35.732C70.8593 35.732 70.4153 36.14 69.8393 36.956C69.2633 37.748 68.6873 38.804 68.1113 40.124C67.5353 41.444 67.0673 42.836 66.7073 44.3C66.4433 45.452 66.1313 46.22 65.7713 46.604C65.4353 46.988 64.8833 47.18 64.1153 47.18C63.3233 47.18 62.7233 46.808 62.3153 46.064C61.9313 45.296 61.7393 44.372 61.7393 43.292C61.7393 42.38 61.8593 41.06 62.0993 39.332C62.2913 37.796 62.3873 36.788 62.3873 36.308C62.3873 35.924 62.2553 35.732 61.9913 35.732C61.6313 35.732 61.1753 36.164 60.6233 37.028C60.0713 37.892 59.5313 38.996 59.0033 40.34C58.4993 41.684 58.0913 43.004 57.7793 44.3C57.5153 45.428 57.2033 46.196 56.8433 46.604C56.5073 46.988 55.9673 47.18 55.2233 47.18ZM98.6083 35.948C98.9203 35.948 99.1603 36.104 99.3283 36.416C99.4963 36.728 99.5803 37.124 99.5803 37.604C99.5803 38.204 99.4963 38.672 99.3283 39.008C99.1603 39.32 98.8963 39.536 98.5363 39.656C97.0963 40.16 95.5123 40.448 93.7843 40.52C93.3043 42.512 92.3923 44.12 91.0483 45.344C89.7283 46.568 88.2643 47.18 86.6563 47.18C84.2323 47.18 82.4683 46.256 81.3643 44.408C80.2603 42.56 79.7083 39.884 79.7083 36.38C79.7083 33.284 80.0923 29.924 80.8603 26.3C81.6283 22.652 82.7443 19.556 84.2083 17.012C85.6963 14.444 87.4603 13.16 89.5003 13.16C90.6043 13.16 91.4923 13.64 92.1643 14.6C92.8363 15.536 93.1723 16.76 93.1723 18.272C93.1723 20.24 92.8003 22.196 92.0563 24.14C91.3123 26.084 90.0763 28.124 88.3483 30.26C89.9563 30.38 91.2643 31.052 92.2723 32.276C93.2803 33.476 93.8803 34.964 94.0723 36.74C95.2003 36.668 96.5443 36.428 98.1043 36.02C98.2483 35.972 98.4163 35.948 98.6083 35.948ZM88.6723 16.724C88.1923 16.724 87.6643 17.444 87.0883 18.884C86.5363 20.3 86.0203 22.232 85.5403 24.68C85.0603 27.128 84.7003 29.804 84.4603 32.708C86.0443 29.804 87.3043 27.248 88.2403 25.04C89.2003 22.808 89.6803 20.828 89.6803 19.1C89.6803 18.332 89.5843 17.744 89.3923 17.336C89.2243 16.928 88.9843 16.724 88.6723 16.724ZM86.8003 43.364C87.5443 43.364 88.2043 43.052 88.7803 42.428C89.3563 41.804 89.7403 40.904 89.9323 39.728C89.1883 39.224 88.6123 38.564 88.2043 37.748C87.8203 36.932 87.6283 36.068 87.6283 35.156C87.6283 34.82 87.6763 34.364 87.7723 33.788H87.6643C86.6803 33.788 85.8523 34.28 85.1803 35.264C84.5323 36.224 84.2083 37.52 84.2083 39.152C84.2083 40.52 84.4603 41.564 84.9643 42.284C85.4923 43.004 86.1043 43.364 86.8003 43.364ZM112.528 38.972C112.84 38.972 113.08 39.116 113.248 39.404C113.44 39.692 113.536 40.088 113.536 40.592C113.536 41.552 113.308 42.296 112.852 42.824C111.964 43.904 110.704 44.9 109.072 45.812C107.464 46.724 105.736 47.18 103.888 47.18C101.368 47.18 99.412 46.496 98.02 45.128C96.628 43.76 95.932 41.888 95.932 39.512C95.932 37.856 96.28 36.32 96.976 34.904C97.672 33.464 98.632 32.324 99.856 31.484C101.104 30.644 102.508 30.224 104.068 30.224C105.46 30.224 106.576 30.644 107.416 31.484C108.256 32.3 108.676 33.416 108.676 34.832C108.676 36.488 108.076 37.916 106.876 39.116C105.7 40.292 103.696 41.228 100.864 41.924C101.464 43.028 102.604 43.58 104.284 43.58C105.364 43.58 106.588 43.208 107.956 42.464C109.348 41.696 110.548 40.7 111.556 39.476C111.844 39.14 112.168 38.972 112.528 38.972ZM103.456 33.752C102.568 33.752 101.812 34.268 101.188 35.3C100.588 36.332 100.288 37.58 100.288 39.044V39.116C101.704 38.78 102.82 38.276 103.636 37.604C104.452 36.932 104.86 36.152 104.86 35.264C104.86 34.808 104.728 34.448 104.464 34.184C104.224 33.896 103.888 33.752 103.456 33.752ZM125.149 35.156C125.677 35.156 126.121 35.348 126.481 35.732C126.865 36.092 127.057 36.548 127.057 37.1C127.057 37.412 126.985 37.748 126.841 38.108C126.457 38.996 125.917 39.74 125.221 40.34C124.525 40.94 123.757 41.24 122.917 41.24C122.245 41.24 121.669 41 121.189 40.52C120.733 40.04 120.505 39.392 120.505 38.576C120.505 38.12 120.529 37.628 120.577 37.1C120.625 36.716 120.649 36.452 120.649 36.308C120.649 36.116 120.601 35.972 120.505 35.876C120.433 35.78 120.337 35.732 120.217 35.732C119.881 35.732 119.425 36.14 118.849 36.956C118.273 37.748 117.697 38.804 117.121 40.124C116.545 41.444 116.077 42.836 115.717 44.3C115.453 45.452 115.153 46.22 114.817 46.604C114.481 46.988 113.929 47.18 113.161 47.18C112.249 47.18 111.601 46.7 111.217 45.74C110.857 44.78 110.677 43.244 110.677 41.132C110.677 38.012 111.121 35.048 112.009 32.24C112.225 31.544 112.573 31.04 113.053 30.728C113.557 30.392 114.253 30.224 115.141 30.224C115.621 30.224 115.957 30.284 116.149 30.404C116.341 30.524 116.437 30.752 116.437 31.088C116.437 31.472 116.257 32.336 115.897 33.68C115.657 34.64 115.465 35.48 115.321 36.2C115.177 36.92 115.057 37.808 114.961 38.864C115.753 36.8 116.641 35.12 117.625 33.824C118.609 32.528 119.569 31.604 120.505 31.052C121.441 30.5 122.293 30.224 123.061 30.224C123.757 30.224 124.285 30.428 124.645 30.836C125.029 31.22 125.221 31.796 125.221 32.564C125.221 33.02 125.089 33.884 124.825 35.156H125.149Z" fill="#F26719"/>
</svg>
