<svg width="24" height="24" viewBox="0 0 24 24" fill="none" xmlns="http://www.w3.org/2000/svg">
<path fill-rule="evenodd" clip-rule="evenodd" d="M11 5L6 9H2V15H6L11 19V5V5Z" stroke="#3E4554" stroke-width="2" stroke-linecap="round" stroke-linejoin="round"/>
<path d="M19.7772 4.22305C19.3867 3.83247 18.7536 3.83237 18.363 4.22284C17.9724 4.61331 17.9723 5.24647 18.3628 5.63705L19.7772 4.22305ZM18.3628 18.3631C17.9723 18.7536 17.9724 19.3868 18.363 19.7773C18.7536 20.1677 19.3867 20.1676 19.7772 19.7771L18.3628 18.3631ZM16.2472 7.75305C15.8567 7.36247 15.2236 7.36237 14.833 7.75284C14.4424 8.14331 14.4423 8.77647 14.8328 9.16705L16.2472 7.75305ZM14.8328 14.8231C14.4423 15.2136 14.4424 15.8468 14.833 16.2373C15.2236 16.6277 15.8567 16.6276 16.2472 16.2371L14.8328 14.8231ZM18.3628 5.63705C21.8762 9.15155 21.8762 14.8486 18.3628 18.3631L19.7772 19.7771C24.0714 15.4816 24.0714 8.51855 19.7772 4.22305L18.3628 5.63705ZM14.8328 9.16705C16.3943 10.7291 16.3943 13.2611 14.8328 14.8231L16.2472 16.2371C18.5895 13.8941 18.5895 10.0961 16.2472 7.75305L14.8328 9.16705Z" fill="#3E4554"/>
</svg>
