<svg width="22" height="20" viewBox="0 0 22 20" fill="none" xmlns="http://www.w3.org/2000/svg">
<path d="M4.01182 16.1894V20L5.54475 19.0802L10.3631 16.1894H15.142C16.2581 16.1894 17.1657 15.2818 17.1657 14.1657V6.07103C17.1657 4.95498 16.2581 4.04736 15.142 4.04736H2.99999C1.88393 4.04736 0.976318 4.95498 0.976318 6.07103V14.1657C0.976318 15.2818 1.88393 16.1894 2.99999 16.1894H4.01182ZM2.99999 6.07103H15.142V14.1657H9.80256L6.03549 16.4262V14.1657H2.99999V6.07103Z" fill="#3E4554"/>
<path d="M19.1894 0H18.1775H16.1518H7.04735C5.9313 0 5.02368 0.907616 5.02368 2.02367H15.735H17.1657C18.2818 2.02367 19.1894 2.93129 19.1894 4.04734V5.47808V10.1184V12.142C20.3054 12.142 21.213 11.2344 21.213 10.1184V5.05918V3.03551V2.02367C21.213 0.907616 20.3054 0 19.1894 0Z" fill="#3E4554"/>
</svg>
