<svg width="14" height="20" viewBox="0 0 14 20" fill="none" xmlns="http://www.w3.org/2000/svg">
<path d="M0 6.999C0 9.317 1.138 11.37 2.879 12.645L2.88 12.646C3.449 13.062 4.081 13.395 4.761 13.625C4.778 13.631 4.795 13.638 4.812 13.644C5.128 13.748 5.455 13.829 5.789 13.887C5.851 13.898 5.913 13.907 5.975 13.915C6.311 13.966 6.65 14 6.999 14H7C7.35 14 7.69 13.966 8.027 13.916C8.088 13.907 8.148 13.898 8.209 13.888C8.545 13.829 8.873 13.749 9.19 13.645C9.205 13.64 9.218 13.634 9.232 13.629C12 12.693 14 10.078 14 6.999C14 3.14 10.86 0 7 0C3.14 0 0 3.14 0 6.999ZM7 3C7 2.44772 7.45225 1.98958 7.99355 2.09916C9.95447 2.49612 11.5036 4.04424 11.9008 6.00545C12.0104 6.54675 11.5523 6.999 11 6.999C10.4477 6.999 10.0162 6.53893 9.83483 6.01728C9.53404 5.15216 8.84731 4.46563 7.98176 4.165C7.46005 3.98379 7 3.55228 7 3ZM4.09413 15.5132C3.36645 15.2621 2.521 15.7572 2.521 16.5269V18.6105C2.521 19.2937 3.19077 19.7757 3.83856 19.5588L7 18.5L10.1617 19.5588C10.8094 19.7758 11.4791 19.2939 11.4793 18.6108L11.4797 16.526C11.4798 15.7564 10.635 15.2615 9.9076 15.5126C8.99555 15.8275 8.01842 16 7 16C5.98283 16 5.00571 15.8277 4.09413 15.5132Z" fill="#3E4554"/>
</svg>
