<svg width="24" height="24" viewBox="0 0 24 24" fill="none" xmlns="http://www.w3.org/2000/svg">
<path d="M21.4261 11.095L4.42611 3.09498C4.07611 2.93198 3.66311 2.98298 3.36511 3.22798C3.06611 3.47298 2.93711 3.86798 3.03011 4.24198L4.96911 12L3.03011 19.758C2.93611 20.132 3.06611 20.528 3.36511 20.773C3.54811 20.923 3.77211 21 4.00011 21C4.14511 21 4.29011 20.969 4.42611 20.905L21.4261 12.905C21.7761 12.74 22.0001 12.388 22.0001 12C22.0001 11.612 21.7761 11.26 21.4261 11.095ZM5.48111 18.197L6.32011 14.84L12.0001 12L6.32011 9.15998L5.48111 5.80298L18.6511 12L5.48111 18.197Z" fill="#F26719"/>
</svg>
