<svg width="18" height="20" viewBox="0 0 18 20" fill="none" xmlns="http://www.w3.org/2000/svg">
<path d="M13 13C13 12.448 12.552 12 12 12H6C5.449 12 5 12.448 5 13V15H13V13ZM5 17H13V20H5V17Z" fill="#3E4554"/>
<path d="M18 10C18 7.033 15.833 4.568 13 4.09V3C13 1.346 11.654 0 10 0H8C6.346 0 5 1.346 5 3V4.09C2.167 4.568 0 7.033 0 10V18C0 19.103 0.897 20 2 20H3V13C3 11.346 4.346 10 6 10H12C13.654 10 15 11.346 15 13V20H16C17.103 20 18 19.103 18 18V10ZM7 3C7 2.448 7.449 2 8 2H10C10.552 2 11 2.448 11 3V4H7V3Z" fill="#3E4554"/>
</svg>
