<svg width="20" height="20" viewBox="0 0 20 20" fill="none" xmlns="http://www.w3.org/2000/svg">
<path d="M1 8C1 7.43079 1.43704 7.07827 1.88485 7.12746C3.60328 7.3162 6.18548 7.77815 8.60981 8.89308C9.4909 9.29829 10.5091 9.29829 11.3902 8.89308C13.8145 7.77815 16.3967 7.3162 18.1152 7.12746C18.563 7.07827 19 7.43079 19 8V15.4532C19 16.0112 18.5076 16.5756 17.8157 16.6554C16.0626 16.8574 13.4183 17.3716 10.4865 18.6695C10.1776 18.8063 9.82239 18.8063 9.51349 18.6695C6.58174 17.3716 3.93741 16.8574 2.18434 16.6554C1.49242 16.5756 1 16.0112 1 15.4532V8Z" fill="#3E4554" stroke="#3E4554" stroke-width="2"/>
<path d="M10 6C11.6569 6 13 4.65685 13 3C13 1.34315 11.6569 0 10 0C8.34315 0 7 1.34315 7 3C7 4.65685 8.34315 6 10 6Z" fill="#3E4554"/>
</svg>
